<svg xmlns="http://www.w3.org/2000/svg" width="25" height="34" preserveAspectRatio="xMinYMin" style=""><rect id="backgroundrect" width="100%" height="100%" x="0" y="0" fill="none" stroke="none" class="" style=""/>

 <title/>
 <g style="">
  <title>background</title>
  <rect fill="none" id="canvas_background" height="52" width="52" y="-1" x="-1"/>
 </g>
 <g style="" class="currentLayer">
  <title>Layer 1</title>
  <ellipse id="svg_3" cy="2.449314594268799" cx="-2.547940254211426" fill-opacity="null" stroke-opacity="null" stroke-width="null" stroke="null" fill="#000000" class="" ry="0" rx="0"/>
  <ellipse ry="4.980236053466797" rx="4.703556060791016" id="svg_4" cy="12.725992679595947" cx="12.66944694519043" stroke-opacity="null" stroke-width="null" stroke="null" fill="#fcfcfc" class=""/>
  <path fill="#56aaff" id="svg_1" d="m6.677985895751952,1.9816437162170413 a10.79,10.79 0 0 0 -5.17,5.24 a12.74,12.74 0 0 0 1.15,13.26 l9.93,14.25 l9.92,-14.25 a12.33,12.33 0 0 0 2.45,-7.45 c0,-8.76 -9,-15.36 -18.28,-11.05 zm6.08,15.2 a4.51,4.51 0 1 1 4.5,-4.51 a4.51,4.51 0 0 1 -4.5,4.51 z" class="cls-1"/>
 </g>
</svg>