<?xml version="1.0" encoding="UTF-8" standalone="no"?>
<svg
   xmlns:dc="http://purl.org/dc/elements/1.1/"
   xmlns:cc="http://creativecommons.org/ns#"
   xmlns:rdf="http://www.w3.org/1999/02/22-rdf-syntax-ns#"
   xmlns:svg="http://www.w3.org/2000/svg"
   xmlns="http://www.w3.org/2000/svg"
   xmlns:sodipodi="http://sodipodi.sourceforge.net/DTD/sodipodi-0.dtd"
   xmlns:inkscape="http://www.inkscape.org/namespaces/inkscape"
   version="1.1"
   id="Layer_1"
   x="0px"
   y="0px"
   viewBox="0 0 445.74201 445.74201"
   xml:space="preserve"
   height="271.22443"
   width="271.22443"
   sodipodi:docname="movie-roll.svg"
   inkscape:version="1.1-dev (ddb55ca, 2020-02-02)"><metadata
     id="metadata884"><rdf:RDF><cc:Work
         rdf:about=""><dc:format>image/svg+xml</dc:format><dc:type
           rdf:resource="http://purl.org/dc/dcmitype/StillImage" /><dc:title></dc:title></cc:Work></rdf:RDF></metadata><defs
     id="defs882" /><sodipodi:namedview
     pagecolor="#ffffff"
     bordercolor="#666666"
     borderopacity="1"
     objecttolerance="10"
     gridtolerance="10"
     guidetolerance="10"
     inkscape:pageopacity="0"
     inkscape:pageshadow="2"
     inkscape:window-width="1247"
     inkscape:window-height="855"
     id="namedview880"
     showgrid="false"
     fit-margin-top="0"
     fit-margin-left="0"
     fit-margin-right="0"
     fit-margin-bottom="0"
     inkscape:zoom="1.7042677"
     inkscape:cx="190.59334"
     inkscape:cy="171.27619"
     inkscape:window-x="31"
     inkscape:window-y="23"
     inkscape:window-maximized="0"
     inkscape:current-layer="Layer_1" /><circle
     style="fill:#b3b3b3;fill-opacity:1"
     cx="222.871"
     cy="222.871"
     r="222.871"
     id="circle835" /><circle
     style="fill:#b3b3b3"
     cx="222.871"
     cy="222.871"
     r="186.729"
     id="circle837" /><g
     id="g847"
     transform="translate(0,-33.128998)"><path
       style="fill:#003638"
       d="m 222.871,201.788 c -29.892,0 -54.212,-24.319 -54.212,-54.212 0,-29.893 24.319,-54.212 54.212,-54.212 29.893,0 54.212,24.319 54.212,54.212 0,29.893 -24.32,54.212 -54.212,54.212 z"
       id="path839"
       inkscape:connector-curvature="0" /><path
       style="fill:#003638"
       d="m 331.294,201.788 c 29.892,0 54.212,24.319 54.212,54.212 0,29.893 -24.319,54.212 -54.212,54.212 -29.892,0 -54.212,-24.319 -54.212,-54.212 0,-29.893 24.32,-54.212 54.212,-54.212 z"
       id="path841"
       inkscape:connector-curvature="0" /><path
       style="fill:#003638"
       d="m 168.659,256 c 0,29.892 -24.319,54.212 -54.212,54.212 -29.893,0 -54.212,-24.32 -54.212,-54.212 0,-29.892 24.319,-54.212 54.212,-54.212 29.893,0 54.212,24.32 54.212,54.212 z"
       id="path843"
       inkscape:connector-curvature="0" /><path
       style="fill:#003638"
       d="m 222.871,310.212 c 29.892,0 54.212,24.319 54.212,54.212 0,29.892 -24.319,54.212 -54.212,54.212 -29.893,0 -54.212,-24.319 -54.212,-54.212 0,-29.893 24.319,-54.212 54.212,-54.212 z"
       id="path845"
       inkscape:connector-curvature="0" /></g><g
     id="g849"
     transform="translate(0,-33.128998)" /><g
     id="g851"
     transform="translate(0,-33.128998)" /><g
     id="g853"
     transform="translate(0,-33.128998)" /><g
     id="g855"
     transform="translate(0,-33.128998)" /><g
     id="g857"
     transform="translate(0,-33.128998)" /><g
     id="g859"
     transform="translate(0,-33.128998)" /><g
     id="g861"
     transform="translate(0,-33.128998)" /><g
     id="g863"
     transform="translate(0,-33.128998)" /><g
     id="g865"
     transform="translate(0,-33.128998)" /><g
     id="g867"
     transform="translate(0,-33.128998)" /><g
     id="g869"
     transform="translate(0,-33.128998)" /><g
     id="g871"
     transform="translate(0,-33.128998)" /><g
     id="g873"
     transform="translate(0,-33.128998)" /><g
     id="g875"
     transform="translate(0,-33.128998)" /><g
     id="g877"
     transform="translate(0,-33.128998)" /></svg>
