<?xml version="1.0" encoding="UTF-8" standalone="no"?>
<svg
   xmlns:dc="http://purl.org/dc/elements/1.1/"
   xmlns:cc="http://creativecommons.org/ns#"
   xmlns:rdf="http://www.w3.org/1999/02/22-rdf-syntax-ns#"
   xmlns:svg="http://www.w3.org/2000/svg"
   xmlns="http://www.w3.org/2000/svg"
   xmlns:sodipodi="http://sodipodi.sourceforge.net/DTD/sodipodi-0.dtd"
   xmlns:inkscape="http://www.inkscape.org/namespaces/inkscape"
   inkscape:version="1.1-dev (ddb55ca, 2020-02-02)"
   sodipodi:docname="movie-roll.svg"
   width="271.22443"
   height="271.22443"
   xml:space="preserve"
   viewBox="0 0 445.74201 445.74201"
   y="0px"
   x="0px"
   id="Layer_1"
   version="1.1"><metadata
     id="metadata884"><rdf:RDF><cc:Work
         rdf:about=""><dc:format>image/svg+xml</dc:format><dc:type
           rdf:resource="http://purl.org/dc/dcmitype/StillImage" /><dc:title></dc:title></cc:Work></rdf:RDF></metadata><defs
     id="defs882" /><sodipodi:namedview
     inkscape:current-layer="Layer_1"
     inkscape:window-maximized="0"
     inkscape:window-y="23"
     inkscape:window-x="0"
     inkscape:cy="171.27619"
     inkscape:cx="190.59334"
     inkscape:zoom="1.7042677"
     fit-margin-bottom="0"
     fit-margin-right="0"
     fit-margin-left="0"
     fit-margin-top="0"
     showgrid="false"
     id="namedview880"
     inkscape:window-height="855"
     inkscape:window-width="1247"
     inkscape:pageshadow="2"
     inkscape:pageopacity="0"
     guidetolerance="10"
     gridtolerance="10"
     objecttolerance="10"
     borderopacity="1"
     bordercolor="#666666"
     pagecolor="#ffffff" /><path
     inkscape:connector-curvature="0"
     id="path833"
     d="M 222.80621,445.742 H 445.742 V 409.601 H 316.51082 c -32.70683,-10e-4 -93.70461,-0.804 -93.70461,36.141 z"
     style="fill:#003638;stroke-width:0.8781" /><circle
     id="circle835"
     r="222.871"
     cy="222.871"
     cx="222.871"
     style="fill:#66e7ec" /><circle
     id="circle837"
     r="186.729"
     cy="222.871"
     cx="222.871"
     style="fill:#00a1a7" /><g
     transform="translate(0,-33.128998)"
     id="g847"><path
       inkscape:connector-curvature="0"
       id="path839"
       d="m 222.871,201.788 c -29.892,0 -54.212,-24.319 -54.212,-54.212 0,-29.893 24.319,-54.212 54.212,-54.212 29.893,0 54.212,24.319 54.212,54.212 0,29.893 -24.32,54.212 -54.212,54.212 z"
       style="fill:#003638" /><path
       inkscape:connector-curvature="0"
       id="path841"
       d="m 331.294,201.788 c 29.892,0 54.212,24.319 54.212,54.212 0,29.893 -24.319,54.212 -54.212,54.212 -29.892,0 -54.212,-24.319 -54.212,-54.212 0,-29.893 24.32,-54.212 54.212,-54.212 z"
       style="fill:#003638" /><path
       inkscape:connector-curvature="0"
       id="path843"
       d="m 168.659,256 c 0,29.892 -24.319,54.212 -54.212,54.212 -29.893,0 -54.212,-24.32 -54.212,-54.212 0,-29.892 24.319,-54.212 54.212,-54.212 29.893,0 54.212,24.32 54.212,54.212 z"
       style="fill:#003638" /><path
       inkscape:connector-curvature="0"
       id="path845"
       d="m 222.871,310.212 c 29.892,0 54.212,24.319 54.212,54.212 0,29.892 -24.319,54.212 -54.212,54.212 -29.893,0 -54.212,-24.319 -54.212,-54.212 0,-29.893 24.319,-54.212 54.212,-54.212 z"
       style="fill:#003638" /></g><g
     transform="translate(0,-33.128998)"
     id="g849" /><g
     transform="translate(0,-33.128998)"
     id="g851" /><g
     transform="translate(0,-33.128998)"
     id="g853" /><g
     transform="translate(0,-33.128998)"
     id="g855" /><g
     transform="translate(0,-33.128998)"
     id="g857" /><g
     transform="translate(0,-33.128998)"
     id="g859" /><g
     transform="translate(0,-33.128998)"
     id="g861" /><g
     transform="translate(0,-33.128998)"
     id="g863" /><g
     transform="translate(0,-33.128998)"
     id="g865" /><g
     transform="translate(0,-33.128998)"
     id="g867" /><g
     transform="translate(0,-33.128998)"
     id="g869" /><g
     transform="translate(0,-33.128998)"
     id="g871" /><g
     transform="translate(0,-33.128998)"
     id="g873" /><g
     transform="translate(0,-33.128998)"
     id="g875" /><g
     transform="translate(0,-33.128998)"
     id="g877" /></svg>
