<?xml version="1.0" encoding="iso-8859-1" standalone="no"?><!--Generator: Adobe Illustrator 19.0.0, SVG Export Plug-In . SVG Version: 6.00 Build 0)--><svg version="1.1" id="Layer_1" xmlns="http://www.w3.org/2000/svg" xmlns:xlink="http://www.w3.org/1999/xlink" x="0px" y="0px" viewBox="0 0 512 512" style="enable-background:new 0 0 512 512" xml:space="preserve" height="311.541px" width="311.541px"><path style="fill:#003638" d="M222.871,478.871H512v-36.141H344.398C301.98,442.729,222.871,441.926,222.871,478.871z"/><circle style="fill:#66e7ec" cx="222.871" cy="256" r="222.871"/><circle style="fill:#00a1a7" cx="222.871" cy="256" r="186.729"/><g><path style="fill:#003638" d="M222.871,201.788c-29.892,0-54.212-24.319-54.212-54.212s24.319-54.212,54.212-54.212s54.212,24.319,54.212,54.212S252.763,201.788,222.871,201.788z"/><path style="fill:#003638" d="M331.294,201.788c29.892,0,54.212,24.319,54.212,54.212s-24.319,54.212-54.212,54.212c-29.892,0-54.212-24.319-54.212-54.212S301.402,201.788,331.294,201.788z"/><path style="fill:#003638" d="M168.659,256c0,29.892-24.319,54.212-54.212,54.212S60.235,285.892,60.235,256s24.319-54.212,54.212-54.212S168.659,226.108,168.659,256z"/><path style="fill:#003638" d="M222.871,310.212c29.892,0,54.212,24.319,54.212,54.212c0,29.892-24.319,54.212-54.212,54.212s-54.212-24.319-54.212-54.212C168.659,334.531,192.978,310.212,222.871,310.212z"/></g><g/><g/><g/><g/><g/><g/><g/><g/><g/><g/><g/><g/><g/><g/><g/></svg>