<?xml version="1.0" encoding="UTF-8" standalone="no"?><svg   xmlns:dc="http://purl.org/dc/elements/1.1/"   xmlns:cc="http://creativecommons.org/ns#"   xmlns:rdf="http://www.w3.org/1999/02/22-rdf-syntax-ns#"   xmlns:svg="http://www.w3.org/2000/svg"   xmlns="http://www.w3.org/2000/svg"   xmlns:sodipodi="http://sodipodi.sourceforge.net/DTD/sodipodi-0.dtd"   xmlns:inkscape="http://www.inkscape.org/namespaces/inkscape"   inkscape:version="1.1-dev (ddb55ca, 2020-02-02)"   sodipodi:docname="user-image-with-black-background.svg"   xml:space="preserve"   style="enable-background:new 0 0 311.541 311.541;"   viewBox="0 0 311.541 311.541"   height="311.541px"   width="311.541px"   y="0px"   x="0px"   id="Capa_1"   version="1.1"><metadata   id="metadata94"><rdf:RDF><cc:Work       rdf:about=""><dc:format>image/svg+xml</dc:format><dc:type         rdf:resource="http://purl.org/dc/dcmitype/StillImage" /><dc:title></dc:title></cc:Work></rdf:RDF></metadata><defs   id="defs92"></defs><sodipodi:namedview   inkscape:current-layer="Capa_1"   inkscape:window-maximized="0"   inkscape:window-y="212"   inkscape:window-x="480"   inkscape:cy="155.77049"   inkscape:cx="135.15381"   inkscape:zoom="0.87307935"   showgrid="false"   id="namedview90"   inkscape:window-height="571"   inkscape:window-width="799"   inkscape:pageshadow="2"   inkscape:pageopacity="0"   guidetolerance="10"   gridtolerance="10"   objecttolerance="10"   borderopacity="1"   bordercolor="#666666"   pagecolor="#ffffff" /><g   style="fill:#f3ac44;fill-opacity:1"   id="g55"><path   style="fill:#f3ac44;fill-opacity:1"   d="M 155.771,26.331 C 69.74,26.331 0,96.071 0,182.102 c 0,37.488 13.25,71.883 35.314,98.761 3.404,-27.256 30.627,-50.308 68.8,-61.225 13.946,12.994 31.96,20.878 51.656,20.878 19.233,0 36.894,-7.487 50.698,-19.936 38.503,11.871 65.141,36.27 66.017,64.63 24.284,-27.472 39.056,-63.555 39.056,-103.108 0,-86.031 -69.74,-155.771 -155.77,-155.771 z m 0,195.738 c -9.944,0 -19.314,-2.732 -27.634,-7.464 -20.05,-11.409 -33.855,-34.756 -33.855,-61.711 0,-38.143 27.583,-69.176 61.489,-69.176 33.909,0 61.489,31.033 61.489,69.176 0,27.369 -14.237,51.004 -34.786,62.215 -8.095,4.414 -17.128,6.96 -26.703,6.96 z"   id="path53"   inkscape:connector-curvature="0" /></g><g   id="g59"></g><g   id="g61"></g><g   id="g63"></g><g   id="g65"></g><g   id="g67"></g><g   id="g69"></g><g   id="g71"></g><g   id="g73"></g><g   id="g75"></g><g   id="g77"></g><g   id="g79"></g><g   id="g81"></g><g   id="g83"></g><g   id="g85"></g><g   id="g87"></g></svg>