<?xml version="1.0" encoding="UTF-8" standalone="no"?>
<!-- Generator: Adobe Illustrator 19.1.0, SVG Export Plug-In . SVG Version: 6.00 Build 0)  -->

<svg
   xmlns:dc="http://purl.org/dc/elements/1.1/"
   xmlns:cc="http://creativecommons.org/ns#"
   xmlns:rdf="http://www.w3.org/1999/02/22-rdf-syntax-ns#"
   xmlns:svg="http://www.w3.org/2000/svg"
   xmlns="http://www.w3.org/2000/svg"
   xmlns:sodipodi="http://sodipodi.sourceforge.net/DTD/sodipodi-0.dtd"
   xmlns:inkscape="http://www.inkscape.org/namespaces/inkscape"
   version="1.1"
   id="Capa_1"
   x="0px"
   y="0px"
   viewBox="0 0 405.457 405.457"
   style="enable-background:new 0 0 405.457 405.457;"
   xml:space="preserve"
   sodipodi:docname="right-arrow.svg"
   inkscape:version="0.92.4 (5da689c313, 2019-01-14)"><metadata
   id="metadata41"><rdf:RDF><cc:Work
       rdf:about=""><dc:format>image/svg+xml</dc:format><dc:type
         rdf:resource="http://purl.org/dc/dcmitype/StillImage" /></cc:Work></rdf:RDF></metadata><defs
   id="defs39" /><sodipodi:namedview
   pagecolor="#ffffff"
   bordercolor="#666666"
   borderopacity="1"
   objecttolerance="10"
   gridtolerance="10"
   guidetolerance="10"
   inkscape:pageopacity="0"
   inkscape:pageshadow="2"
   inkscape:window-width="3440"
   inkscape:window-height="1377"
   id="namedview37"
   showgrid="false"
   inkscape:zoom="0.58205926"
   inkscape:cx="-76.452697"
   inkscape:cy="202.7285"
   inkscape:window-x="-8"
   inkscape:window-y="-8"
   inkscape:window-maximized="1"
   inkscape:current-layer="Capa_1" />
<g
   id="g4"
   style="fill:#000000;fill-opacity:1">
	<path
   style="fill:#000000;fill-opacity:1"
   d="M64.147,331.322c0.078,4.985,2.163,9.911,5.688,13.438l55,55c3.599,3.601,8.659,5.697,13.75,5.697   c5.091,0,10.151-2.096,13.75-5.697l183.281-183.282c3.601-3.599,5.697-8.659,5.697-13.75s-2.096-10.151-5.697-13.75L152.335,5.697   C148.736,2.096,143.676,0,138.585,0c-5.091,0-10.151,2.096-13.75,5.697l-55,55c-3.591,3.598-5.681,8.651-5.681,13.734   s2.09,10.136,5.681,13.734l114.562,114.563L69.835,317.291C66.171,320.958,64.07,326.139,64.147,331.322L64.147,331.322z"
   id="path2" />
</g>
<g
   id="g6">
</g>
<g
   id="g8">
</g>
<g
   id="g10">
</g>
<g
   id="g12">
</g>
<g
   id="g14">
</g>
<g
   id="g16">
</g>
<g
   id="g18">
</g>
<g
   id="g20">
</g>
<g
   id="g22">
</g>
<g
   id="g24">
</g>
<g
   id="g26">
</g>
<g
   id="g28">
</g>
<g
   id="g30">
</g>
<g
   id="g32">
</g>
<g
   id="g34">
</g>
</svg>