<?xml version="1.0" encoding="UTF-8" standalone="no"?>
<!-- Generator: Adobe Illustrator 19.1.0, SVG Export Plug-In . SVG Version: 6.00 Build 0)  -->

<svg
   xmlns:dc="http://purl.org/dc/elements/1.1/"
   xmlns:cc="http://creativecommons.org/ns#"
   xmlns:rdf="http://www.w3.org/1999/02/22-rdf-syntax-ns#"
   xmlns:svg="http://www.w3.org/2000/svg"
   xmlns="http://www.w3.org/2000/svg"
   xmlns:sodipodi="http://sodipodi.sourceforge.net/DTD/sodipodi-0.dtd"
   xmlns:inkscape="http://www.inkscape.org/namespaces/inkscape"
   version="1.1"
   id="Capa_1"
   x="0px"
   y="0px"
   viewBox="0 0 405.456 405.456"
   style="enable-background:new 0 0 405.456 405.456;"
   xml:space="preserve"
   sodipodi:docname="width.svg"
   inkscape:version="0.92.4 (5da689c313, 2019-01-14)"><metadata
   id="metadata41"><rdf:RDF><cc:Work
       rdf:about=""><dc:format>image/svg+xml</dc:format><dc:type
         rdf:resource="http://purl.org/dc/dcmitype/StillImage" /><dc:title /></cc:Work></rdf:RDF></metadata><defs
   id="defs39" /><sodipodi:namedview
   pagecolor="#ffffff"
   bordercolor="#666666"
   borderopacity="1"
   objecttolerance="10"
   gridtolerance="10"
   guidetolerance="10"
   inkscape:pageopacity="0"
   inkscape:pageshadow="2"
   inkscape:window-width="3440"
   inkscape:window-height="1377"
   id="namedview37"
   showgrid="false"
   inkscape:zoom="0.41157908"
   inkscape:cx="104.47491"
   inkscape:cy="23.458732"
   inkscape:window-x="-8"
   inkscape:window-y="-8"
   inkscape:window-maximized="1"
   inkscape:current-layer="Capa_1" />

<g
   id="g6">
</g>
<g
   id="g8">
</g>
<g
   id="g10">
</g>
<g
   id="g12">
</g>
<g
   id="g14">
</g>
<g
   id="g16">
</g>
<g
   id="g18">
</g>
<g
   id="g20">
</g>
<g
   id="g22">
</g>
<g
   id="g24">
</g>
<g
   id="g26">
</g>
<g
   id="g28">
</g>
<g
   id="g30">
</g>
<g
   id="g32">
</g>
<g
   id="g34">
</g>
<g
   id="g4"
   transform="matrix(0.46902954,0,0,0.81389843,-30.085431,37.727996)"
   style="fill:#000000;fill-opacity:1">
	<path
   style="fill:#000000;fill-opacity:1"
   d="m 341.31,74.135 c -0.078,-4.985 -2.163,-9.911 -5.688,-13.438 l -55,-55 C 277.023,2.096 271.963,0 266.872,0 261.781,0 256.721,2.096 253.122,5.697 L 69.841,188.978 c -3.601,3.599 -5.697,8.659 -5.697,13.75 0,5.091 2.096,10.151 5.697,13.75 l 183.281,183.281 c 3.599,3.601 8.659,5.697 13.75,5.697 5.091,0 10.151,-2.096 13.75,-5.697 l 55,-55 c 3.591,-3.598 5.681,-8.651 5.681,-13.734 0,-5.083 -2.09,-10.136 -5.681,-13.734 L 221.06,202.728 335.622,88.166 c 3.665,-3.667 5.765,-8.848 5.688,-14.031 z"
   id="path2"
   inkscape:connector-curvature="0" />
</g><g
   style="fill:#000000;fill-opacity:1"
   transform="matrix(0.23451477,0,0,0.40694922,89.957285,120.228)"
   id="g1095">
	<path
   inkscape:connector-curvature="0"
   id="path1093"
   d="m 341.31,74.135 c -0.078,-4.985 -2.163,-9.911 -5.688,-13.438 l -55,-55 C 277.023,2.096 271.963,0 266.872,0 261.781,0 256.721,2.096 253.122,5.697 L 69.841,188.978 c -3.601,3.599 -5.697,8.659 -5.697,13.75 0,5.091 2.096,10.151 5.697,13.75 l 183.281,183.281 c 3.599,3.601 8.659,5.697 13.75,5.697 5.091,0 10.151,-2.096 13.75,-5.697 l 55,-55 c 3.591,-3.598 5.681,-8.651 5.681,-13.734 0,-5.083 -2.09,-10.136 -5.681,-13.734 L 221.06,202.728 335.622,88.166 c 3.665,-3.667 5.765,-8.848 5.688,-14.031 z"
   style="fill:#000000;fill-opacity:1" />
</g><g
   style="fill:#000000;fill-opacity:1"
   transform="matrix(-0.46902954,0,0,0.81389843,435.54142,37.727996)"
   id="g1141">
	<path
   inkscape:connector-curvature="0"
   id="path1139"
   d="m 341.31,74.135 c -0.078,-4.985 -2.163,-9.911 -5.688,-13.438 l -55,-55 C 277.023,2.096 271.963,0 266.872,0 261.781,0 256.721,2.096 253.122,5.697 L 69.841,188.978 c -3.601,3.599 -5.697,8.659 -5.697,13.75 0,5.091 2.096,10.151 5.697,13.75 l 183.281,183.281 c 3.599,3.601 8.659,5.697 13.75,5.697 5.091,0 10.151,-2.096 13.75,-5.697 l 55,-55 c 3.591,-3.598 5.681,-8.651 5.681,-13.734 0,-5.083 -2.09,-10.136 -5.681,-13.734 L 221.06,202.728 335.622,88.166 c 3.665,-3.667 5.765,-8.848 5.688,-14.031 z"
   style="fill:#000000;fill-opacity:1" />
</g><g
   id="g1145"
   transform="matrix(-0.23451477,0,0,0.40694922,315.4987,120.228)"
   style="fill:#000000;fill-opacity:1">
	<path
   style="fill:#000000;fill-opacity:1"
   d="m 341.31,74.135 c -0.078,-4.985 -2.163,-9.911 -5.688,-13.438 l -55,-55 C 277.023,2.096 271.963,0 266.872,0 261.781,0 256.721,2.096 253.122,5.697 L 69.841,188.978 c -3.601,3.599 -5.697,8.659 -5.697,13.75 0,5.091 2.096,10.151 5.697,13.75 l 183.281,183.281 c 3.599,3.601 8.659,5.697 13.75,5.697 5.091,0 10.151,-2.096 13.75,-5.697 l 55,-55 c 3.591,-3.598 5.681,-8.651 5.681,-13.734 0,-5.083 -2.09,-10.136 -5.681,-13.734 L 221.06,202.728 335.622,88.166 c 3.665,-3.667 5.765,-8.848 5.688,-14.031 z"
   id="path1143"
   inkscape:connector-curvature="0" />
</g></svg>