<svg height="512pt" viewBox="0 -11 512 512" width="512pt" xmlns="http://www.w3.org/2000/svg"><path d="m493.164062 430.335938h-14.457031v-268.503907c0-27.410156-21.25-49.933593-48.140625-52.003906v-92.65625c0-9.46875-7.707031-17.171875-17.175781-17.171875h-32.148437c-4.199219 0-7.605469 3.40625-7.605469 7.605469s3.40625 7.601562 7.605469 7.601562h32.148437c1.082031 0 1.964844.882813 1.964844 1.964844v106.113281c0 1.085938-.882813 1.964844-1.964844 1.964844h-40.503906c-1.085938 0-1.964844-.878906-1.964844-1.964844v-46.46875c0-9.46875-7.707031-17.171875-17.175781-17.171875h-50.765625c-9.46875 0-17.175781 7.703125-17.175781 17.171875v225.914063c0 9.472656 7.707031 17.175781 17.175781 17.175781h42.128906c1.085937 0 1.96875.878906 1.96875 1.964844v40.503906c0 1.082031-.882813 1.964844-1.96875 1.964844h-178.226563c-1.082031 0-1.964843-.882813-1.964843-1.964844v-40.503906c0-1.085938.882812-1.964844 1.964843-1.964844h42.675782c9.46875 0 17.171875-7.707031 17.171875-17.175781v-225.914063c0-9.46875-7.703125-17.171875-17.171875-17.171875h-51.308594c-9.472656 0-17.175781 7.703125-17.175781 17.171875v46.46875c0 1.085938-.878907 1.964844-1.964844 1.964844h-40.503906c-1.082031 0-1.964844-.878906-1.964844-1.964844v-106.113281c0-1.082031.882813-1.964844 1.964844-1.964844h252.222656c4.199219 0 7.601563-3.402343 7.601563-7.601562s-3.402344-7.605469-7.601563-7.605469h-252.222656c-9.46875 0-17.171875 7.707031-17.171875 17.171875v92.660156c-26.886719 2.070313-48.132813 24.59375-48.132813 52v268.503907h-14.464843c-10.386719 0-18.835938 8.449218-18.835938 18.835937 0 22.976563 18.695312 41.671875 41.671875 41.671875h428.65625c22.976563 0 41.671875-18.695312 41.671875-41.671875 0-10.386719-8.449219-18.835937-18.835938-18.835937zm-202.75 15.207031c-2.617187 4.449219-7.457031 7.441406-12.980468 7.441406h-42.867188c-5.523437 0-10.363281-2.992187-12.980468-7.441406zm12.566407-370.691407h50.765625c1.085937 0 1.964844.878907 1.964844 1.964844v32.84375h-54.695313v-32.84375c0-1.082031.882813-1.964844 1.964844-1.964844zm-144.730469 0h51.308594c1.082031 0 1.964844.878907 1.964844 1.964844v32.84375h-55.242188v-32.84375c.003906-1.082031.882812-1.964844 1.96875-1.964844zm-109.742188 86.980469c0-19.050781 14.484376-34.777343 33.019532-36.753906.898437 8.632813 8.214844 15.382813 17.078125 15.382813h40.503906c8.9375 0 16.292969-6.863282 17.09375-15.59375h55.320313v22.558593h-118.753907c-15.589843 0-28.273437 12.683594-28.273437 28.273438v109.410156c0 4.199219 3.402344 7.601563 7.601562 7.601563 4.199219 0 7.605469-3.402344 7.605469-7.601563v-109.410156c0-7.203125 5.863281-13.066407 13.066406-13.066407h118.753907v140.097657c0 1.085937-.882813 1.964843-1.964844 1.964843h-42.671875c-9.46875 0-17.175781 7.703126-17.175781 17.175782v40.503906c0 9.46875 7.707031 17.171875 17.175781 17.171875h178.226562c9.46875 0 17.171875-7.703125 17.171875-17.171875v-40.503906c0-9.472656-7.703125-17.175782-17.171875-17.175782h-42.132812c-1.082031 0-1.964844-.878906-1.964844-1.964843v-140.097657h118.210937c7.203126 0 13.066407 5.863282 13.066407 13.066407v211.066406c0 7.203125-5.859375 13.058594-13.066407 13.058594h-326.457031c-7.203125 0-13.066406-5.855469-13.066406-13.058594v-71.242187c0-4.199219-3.40625-7.605469-7.605469-7.605469-4.199218 0-7.601562 3.40625-7.601562 7.605469v71.242187c0 15.585937 12.683594 28.269531 28.273437 28.269531h326.453125c15.59375 0 28.277344-12.683594 28.277344-28.269531v-211.066406c0-15.589844-12.683594-28.273438-28.277344-28.273438h-118.207031v-22.558593h54.777344c.800781 8.730468 8.15625 15.59375 17.09375 15.59375h40.503906c8.863281 0 16.175781-6.75 17.078125-15.382813 18.539062 1.976563 33.03125 17.703125 33.03125 36.753906v268.5h-414.992188zm421.820313 313.804688h-428.65625c-14.59375 0-26.464844-11.875-26.464844-26.464844 0-2 1.628907-3.628906 3.628907-3.628906h186.445312c3.382812 13.015625 15.230469 22.652343 29.285156 22.652343h42.867188c14.058594 0 25.90625-9.636718 29.285156-22.652343h186.445312c2 0 3.628907 1.628906 3.628907 3.628906 0 14.589844-11.871094 26.464844-26.464844 26.464844zm0 0"/></svg>